{"title":"Upkar 1967 2CD DvDrip AC3 ~ Drama ~ [RdY]","uid":6658414,"size":1466447872,"categoryP":"video","categoryS":"movies","magnet":"?xt=urn:btih:a4bcdc304b23371cc371900e70869084c93dd1c1&amp;dn=Upkar+1967+2CD+DvDrip+AC3+%7E+Drama+%7E+%5BRdY%5D&amp;tr=udp%3A%2F%2Ftracker.openbittorrent.com%3A80&amp;tr=udp%3A%2F%2Fopen.demonii.com%3A1337&amp;tr=udp%3A%2F%2Ftracker.coppersurfer.tk%3A6969&amp;tr=udp%3A%2F%2Fexodus.desync.com%3A6969","seeders":1,"leechers":0,"uploader":"ilyas2000pk","files":-1,"time":1315414191,"description":"Color\nC\n\nRelease Date\n1967\n\nGenre\nDrama\n\nExecutive Producer / Co-Producer\nShashi Goswami\n\nDirector\nManoj Kumar\n\nStar Cast\nManoj Kumar...... Bharat\nAsha Parekh...... Kavita\nPran...... Malang\nPrem Chopra...... Puran 'Kumar'\nKamini Kaushal...... Radha\nKanhaiya Lal...... Lala Dhaniram\nMadan Puri...... Charan Das (as Madanpuri)\nDavid...... Major saab\nManmohan Krishan...... Kishan (as Manmohankrishan)\nAruna Irani\nSunder...... Sunder Lal\nAsit Sen...... Lakhpati\nMohan Choti...... Mangal\nShammi\nLaxmi Chhaya\nMahesh...... (as Master Mahesh)\nManmohan...... Kavita's Brother\nKrishan Dhawan...... Ramu\nRam Mohan\nTun Tun...... Lakhpati's Wife (as Tuntun)\nBirbal...... Barber (uncredited)\nGulshan Bawra\n\nCassettes and CD's on\nSaregama-HMV\n\nSingers\nMahendra Kapoor\nManna Dey\nAsha Bhosle\nShamshad Begum\nSunder\nMukesh\nMohammed Rafi\nLata Mangeshkar\n\nLyricist\nPrem Dhawan\nQamar\nIndeevar\nGulshan Bawra\n\nMusic Director\nKalayanji\nAnandji\n\nCinematography\nV N Reddy\n\nChoreography\nSurya Kumar\nHerman Benjamin\n\nArt\nGyan Singh\n\nEditor\nB S Glaad\n\nSound\nMinoo Katrak\n\nStory / Writer\nManoj Kumar\n\n\n\n\nUpkar 1967 2CD DvDrip AC3 ~ Drama ~ [RdY]\n\nFormat : AVI\nFormat/Info : Audio Video Interleave\nFile size : 1.37 GiB\nDuration : 2h 49mn\nOverall bit rate : 1 155 Kbps\nWriting application : VirtualDubMod 1.5.10.2 (build 2542/release)\nWriting library : VirtualDubMod build 2542/release\n\nVideo\nID : 0\nFormat : MPEG-4 Visual\nFormat profile : AdvancedSimple@L5\nFormat settings, BVOP : Yes\nFormat settings, QPel : Yes\nFormat settings, GMC : No warppoints\nFormat settings, Matrix : Default (MPEG)\nCodec ID : XVID\nCodec ID/Hint : XviD\nDuration : 2h 49mn\nBit rate : 921 Kbps\nWidth : 544 pixels\nHeight : 400 pixels\nDisplay aspect ratio : 4:3\nFrame rate : 23.976 fps\nResolution : 24 bits\nColorimetry : 4.2.0\nScan type : Progressive\nBits/(Pixel*Frame) : 0.177\nStream size : 1.09 GiB (80%)\nWriting library : XviD 1.2.1 (UTC 2008-12-04)\n\nAudio\nID : 1\nFormat : AC-3\nFormat/Info : Audio Coding 3\nCodec ID : 2000\nDuration : 2h 49mn\nBit rate mode : Constant\nBit rate : 224 Kbps\nChannel(s) : 2 channels\nChannel positions : L R\nSampling rate : 48.0 KHz\nStream size : 271 MiB (19%)\nAlignment : Split accross interleaves\nInterleave, duration : 42 ms (1.00 video frame)\nInterleave, preload duration : 500 ms","torrent":{"xt":"urn:btih:a4bcdc304b23371cc371900e70869084c93dd1c1","amp;dn":"Upkar+1967+2CD+DvDrip+AC3+%7E+Drama+%7E+%5BRdY%5D","amp;tr":["udp%3A%2F%2Ftracker.openbittorrent.com%3A80","udp%3A%2F%2Fopen.demonii.com%3A1337","udp%3A%2F%2Ftracker.coppersurfer.tk%3A6969","udp%3A%2F%2Fexodus.desync.com%3A6969"],"infoHash":"a4bcdc304b23371cc371900e70869084c93dd1c1","infoHashBuffer":{"type":"Buffer","data":[164,188,220,48,75,35,55,28,195,113,144,14,112,134,144,132,201,61,209,193]},"announce":[],"urlList":[]}}